<?xml version="1.0" encoding="UTF-8"?>
<!DOCTYPE svg PUBLIC "-//W3C//DTD SVG 1.1//EN" "http://www.w3.org/Graphics/SVG/1.1/DTD/svg11.dtd">
<svg xmlns="http://www.w3.org/2000/svg" version="1.1" width="36px" height="36px" style="shape-rendering:geometricPrecision; text-rendering:geometricPrecision; image-rendering:optimizeQuality; fill-rule:evenodd; clip-rule:evenodd" xmlns:xlink="http://www.w3.org/1999/xlink">
<g><path style="opacity:0.997" fill="#344a86" d="M 18.5,-0.5 C 20.1667,-0.5 21.8333,-0.5 23.5,-0.5C 25.3779,0.207597 27.0445,1.37426 28.5,3C 26.1539,4.01276 24.4872,5.67943 23.5,8C 29.0488,15.3203 29.8821,23.1536 26,31.5C 24.1879,32.9771 22.3545,34.3104 20.5,35.5C 18.5,35.5 16.5,35.5 14.5,35.5C 13.8333,34.8333 13.1667,34.1667 12.5,33.5C 9.54795,32.6411 7.71461,30.6411 7,27.5C 6.33333,23.5 6.33333,19.5 7,15.5C 10.1319,9.53204 13.9653,4.1987 18.5,-0.5 Z"/></g>
<g><path style="opacity:1" fill="#989ab1" d="M 15.5,11.5 C 16.3764,11.3691 17.0431,11.7025 17.5,12.5C 16.277,13.6139 14.9437,13.7805 13.5,13C 14.4158,12.7216 15.0825,12.2216 15.5,11.5 Z"/></g>
<g><path style="opacity:1" fill="#e4ded2" d="M 18.5,13.5 C 19.4971,12.2875 20.4971,12.4542 21.5,14C 20.4232,14.4696 19.4232,14.3029 18.5,13.5 Z"/></g>
<g><path style="opacity:1" fill="#e1dbd2" d="M 12.5,33.5 C 9.15172,30.819 8.15172,27.4857 9.5,23.5C 12.4131,24.7486 13.0797,23.9153 11.5,21C 12.6078,15.977 15.6078,14.3103 20.5,16C 22.6801,18.4177 23.0135,21.0844 21.5,24C 22.549,24.4922 23.549,24.3256 24.5,23.5C 26.7615,29.9295 24.4282,33.5961 17.5,34.5C 15.8653,33.9537 14.1986,33.6204 12.5,33.5 Z"/></g>
<g><path style="opacity:1" fill="#79829f" d="M 13.5,20.5 C 14.209,19.596 15.209,19.2627 16.5,19.5C 16.3433,20.8734 16.51,22.2068 17,23.5C 17.3076,22.6919 17.8076,22.0253 18.5,21.5C 18.7365,22.2472 19.0698,23.0805 19.5,24C 18.2068,24.49 16.8734,24.6567 15.5,24.5C 15.8432,22.5168 15.1765,21.1834 13.5,20.5 Z"/></g>
<g><path style="opacity:1" fill="#7c84a1" d="M 17.5,16.5 C 18.404,17.209 18.7373,18.209 18.5,19.5C 19.5,19.5 20.5,19.5 21.5,19.5C 21.6495,20.552 21.4828,21.552 21,22.5C 20.2904,21.0267 19.1238,20.3601 17.5,20.5C 17.5,19.1667 17.5,17.8333 17.5,16.5 Z"/></g>
</svg>
